<?xml version="1.0" standalone="no"?>
<!DOCTYPE svg PUBLIC "-//W3C//DTD SVG 20010904//EN"
 "http://www.w3.org/TR/2001/REC-SVG-20010904/DTD/svg10.dtd">
<svg version="1.0" xmlns="http://www.w3.org/2000/svg"
 width="1646.000000pt" height="494.000000pt" viewBox="0 0 1646.000000 494.000000"
 preserveAspectRatio="xMidYMid meet">
<metadata>
Created by potrace 1.14, written by Peter Selinger 2001-2017
</metadata>
<g transform="translate(0.000000,494.000000) scale(0.100000,-0.100000)"
fill="#000000" stroke="none">
<path d="M3450 4873 c-60 -95 -107 -197 -121 -262 -14 -68 0 -162 37 -241 l25
-53 -33 -34 c-91 -94 -225 -174 -353 -210 -200 -56 -320 -145 -394 -289 -51
-100 -60 -169 -60 -441 l1 -243 -109 -78 c-59 -43 -161 -117 -225 -164 -210
-154 -368 -240 -468 -256 -83 -13 -241 -8 -347 12 -63 11 -97 13 -144 5 -158
-25 -229 -93 -264 -249 -21 -97 -49 -155 -88 -182 -128 -87 -238 -202 -285
-293 -18 -37 -41 -109 -56 -176 -5 -22 -11 -26 -50 -28 -24 -1 -53 -3 -63 -5
-10 -2 -56 -7 -103 -11 -47 -4 -93 -9 -102 -10 -9 -2 -59 -7 -110 -11 -105 -8
-159 -22 -93 -24 22 -1 47 -3 56 -5 8 -1 42 -6 75 -9 32 -4 74 -9 91 -12 18
-2 48 -6 65 -8 18 -3 60 -8 92 -12 33 -3 67 -8 75 -9 9 -2 21 -4 27 -4 6 -1 9
-14 6 -31 l-4 -30 1283 1 c755 1 1251 5 1205 10 -167 18 -293 54 -351 101 -41
34 -59 88 -45 137 5 18 6 31 2 29 -202 -107 -561 -113 -785 -14 -204 90 -257
303 -127 505 22 34 62 85 88 113 l47 51 -45 -7 c-60 -9 -183 -69 -213 -106
-14 -16 -37 -60 -52 -99 -14 -39 -44 -89 -66 -114 -35 -41 -137 -114 -181
-130 -9 -3 -19 -20 -23 -38 -10 -45 -81 -112 -140 -132 -96 -33 -218 -12 -272
47 -63 68 -33 128 100 196 53 28 107 65 138 96 51 51 51 52 59 132 12 115 42
163 125 198 34 14 81 17 290 18 262 2 321 9 433 57 29 13 68 19 117 19 202 0
435 76 590 193 79 60 121 105 192 204 65 91 207 264 298 362 71 78 65 73 -232
-180 -236 -201 -454 -378 -524 -426 -74 -51 -183 -101 -265 -123 -43 -11 -82
-20 -87 -20 -4 0 47 38 116 84 202 136 512 370 944 712 l192 152 -147 4 c-160
5 -218 20 -289 74 -40 31 -83 113 -83 162 0 71 46 132 100 132 14 0 62 13 107
29 82 29 168 78 298 172 125 91 249 170 320 206 289 146 937 240 1465 213 523
-27 852 -107 1543 -374 417 -162 846 -364 1029 -485 112 -74 119 -76 216 -65
l52 7 -25 33 c-29 38 -55 95 -55 119 0 19 40 16 240 -16 145 -24 255 -58 430
-132 116 -50 125 -52 128 -34 6 30 -148 180 -222 217 -33 17 -72 30 -87 30
-69 0 -25 21 154 73 392 116 761 205 1124 273 186 35 536 88 653 99 36 3 81 8
100 10 34 4 131 11 275 20 39 2 117 7 175 12 198 15 785 8 888 -12 9 -1 53 -6
96 -10 43 -4 86 -8 95 -10 9 -2 44 -6 76 -10 33 -4 116 -15 185 -26 720 -113
1503 -314 2415 -622 138 -47 251 -83 253 -82 14 12 -374 213 -578 300 -721
307 -1851 587 -2665 660 -38 4 -81 8 -95 10 -165 27 -749 26 -985 -1 -567 -65
-1045 -158 -1525 -294 -312 -88 -884 -223 -1144 -270 -229 -40 -197 -48 -896
233 -434 175 -642 247 -876 306 -470 117 -771 156 -1204 156 -369 0 -533 -19
-970 -110 -41 -8 -85 -18 -98 -20 -20 -5 -22 -2 -16 19 8 33 -24 102 -83 179
-53 69 -201 227 -213 227 -5 0 -27 -30 -50 -67z"/>
<path d="M5349 4350 l-167 -89 -54 11 c-29 6 -70 8 -89 4 -147 -27 -199 -223
-93 -344 l33 -37 -9 35 c-33 120 13 240 112 291 62 32 67 22 17 -30 -65 -68
-84 -136 -55 -205 16 -39 51 -67 75 -59 30 11 68 54 86 96 9 23 23 57 31 75
21 48 104 133 189 191 40 28 78 51 83 51 9 0 42 -151 42 -192 0 -25 -45 -73
-86 -93 -34 -16 -37 -16 -55 1 -25 23 -24 56 5 127 13 31 21 57 17 57 -19 0
-83 -55 -115 -99 -34 -46 -126 -228 -141 -278 -5 -19 -1 -25 20 -33 14 -5 38
-10 53 -11 l27 0 -25 -12 c-34 -16 -39 -24 -46 -89 -5 -48 -10 -58 -25 -58
-11 0 -61 -14 -111 -30 -51 -17 -124 -33 -163 -36 -68 -6 -72 -5 -159 40 -64
33 -102 46 -130 46 -57 0 -73 -13 -41 -30 68 -37 109 -139 103 -260 -2 -44 1
-80 5 -80 5 0 41 34 82 75 100 103 140 120 260 112 93 -7 196 -32 255 -62 l33
-17 34 38 c21 25 31 46 28 59 -2 11 -13 58 -24 105 -28 116 -28 116 19 124
113 18 232 86 260 149 27 58 27 194 0 304 -29 123 -78 243 -98 243 -9 0 -92
-40 -183 -90z"/>
<path d="M3967 3940 c-242 -41 -388 -191 -404 -414 -6 -72 -10 -84 -53 -150
-26 -39 -81 -108 -124 -153 l-78 -82 26 -90 c14 -49 26 -96 26 -103 0 -7 -46
-59 -102 -116 -99 -99 -104 -112 -27 -71 38 20 126 13 172 -15 56 -32 124
-106 148 -162 11 -24 21 -44 23 -44 2 0 42 47 91 105 113 137 280 311 349 364
39 31 68 44 107 50 162 27 265 90 305 187 15 36 19 141 6 161 -6 9 -13 4 -25
-16 -23 -39 -102 -104 -163 -135 -113 -57 -190 -53 -256 14 -30 30 -38 45 -38
74 0 116 150 216 322 216 67 0 69 1 62 23 -19 62 -60 129 -91 148 -38 24 -58
23 -195 -7 -87 -18 -88 -18 -108 2 -11 11 -24 34 -29 52 -9 29 -6 37 21 67 36
42 113 68 258 89 l95 14 -135 0 c-74 0 -157 -4 -183 -8z"/>
<path d="M6246 3800 c-457 -72 -835 -439 -921 -893 -19 -102 -19 -319 0 -430
18 -102 53 -205 106 -307 112 -216 345 -429 565 -519 248 -101 550 -107 804
-15 263 94 497 299 619 541 17 34 31 65 31 68 0 3 -106 5 -236 5 l-236 0 -64
-59 c-76 -72 -174 -131 -274 -168 -68 -24 -88 -27 -220 -27 -134 -1 -151 1
-225 27 -106 38 -185 87 -266 167 -82 80 -132 158 -171 264 -40 107 -50 281
-23 401 50 225 242 435 466 509 210 70 438 33 635 -102 33 -22 77 -58 99 -81
l39 -41 238 0 c131 0 238 2 238 5 0 16 -65 130 -111 195 -145 206 -387 372
-636 436 -78 21 -128 26 -248 29 -82 2 -177 0 -209 -5z"/>
<path d="M4163 3525 c-87 -27 -193 -110 -193 -151 0 -17 6 -15 70 34 l45 35 5
-46 c3 -25 14 -55 24 -66 22 -24 22 -24 -24 -45 l-35 -16 75 5 c136 8 250 88
266 186 6 35 4 37 -38 58 -51 24 -129 27 -195 6z"/>
<path d="M12545 3406 c-350 -57 -635 -312 -742 -663 -24 -79 -26 -105 -27
-248 -1 -175 11 -247 65 -377 64 -155 210 -327 362 -426 308 -201 733 -187
1043 33 86 62 212 199 261 286 69 121 84 109 -142 109 l-197 0 -54 -49 c-68
-63 -151 -113 -234 -143 -93 -33 -275 -33 -370 1 -178 62 -322 214 -376 396
-12 40 -18 93 -18 160 0 172 50 291 174 415 118 118 243 170 410 170 47 0 110
-7 140 -15 82 -22 191 -79 249 -131 l50 -45 113 -4 c62 -1 157 -6 211 -10 l99
-7 -27 53 c-115 227 -356 418 -607 479 -107 26 -279 33 -383 16z"/>
<path d="M7550 2486 l0 -916 175 0 175 0 2 307 3 308 225 -307 225 -307 213
-1 c168 0 212 3 206 13 -5 6 -111 152 -236 324 -125 172 -228 314 -228 316 0
3 21 10 46 16 172 43 330 196 385 370 26 85 29 238 5 331 -44 167 -149 317
-265 379 -127 67 -176 74 -573 79 l-358 4 0 -916z m718 548 c101 -50 161 -158
149 -270 -6 -63 -27 -107 -76 -157 -69 -73 -96 -81 -278 -85 l-163 -4 0 271 0
271 158 0 c150 0 161 -1 210 -26z"/>
<path d="M8871 2878 c-2 -722 12 -896 79 -1035 72 -147 282 -273 482 -289 154
-12 334 55 457 172 82 77 123 149 159 281 l26 98 4 648 3 647 -180 0 -181 0 0
-616 c0 -681 -2 -713 -61 -794 -78 -107 -257 -115 -355 -16 -77 77 -83 141
-84 869 l0 557 -174 0 -174 0 -1 -522z"/>
<path d="M10240 2485 l0 -915 175 0 175 0 -1 561 c-1 308 1 562 3 564 2 3 175
-249 384 -558 l379 -562 163 -3 162 -2 0 915 0 915 -175 0 -175 0 -2 -565 -3
-566 -385 565 -385 565 -157 1 -158 0 0 -915z"/>
<path d="M13640 2485 l0 -915 175 0 175 0 0 360 0 360 275 0 275 0 0 -360 0
-360 175 0 175 0 0 915 0 915 -175 0 -175 0 0 -375 0 -375 -275 0 -275 0 0
375 0 375 -175 0 -175 0 0 -915z"/>
<path d="M15014 3368 c7 -18 124 -275 260 -572 l246 -539 0 -343 0 -344 175 0
175 0 0 331 0 331 295 575 c162 317 295 580 295 584 0 5 -86 9 -191 9 l-190 0
-182 -370 -182 -370 -175 370 -174 370 -183 0 -183 0 14 -32z"/>
<path d="M4560 3204 c-79 -81 -232 -204 -315 -252 -82 -49 -219 -171 -198
-179 16 -6 189 77 259 124 69 47 161 141 228 233 44 60 81 120 73 120 -1 0
-23 -21 -47 -46z"/>
<path d="M4320 2732 c-310 -204 -380 -255 -478 -346 -98 -92 -212 -274 -268
-429 l-14 -39 53 44 c168 139 606 601 715 756 27 36 26 37 -8 14z"/>
<path d="M3015 2640 c-89 -43 -253 -106 -312 -120 -48 -11 -63 -9 -165 16
-129 31 -267 37 -358 15 -83 -20 -91 -29 -24 -28 159 1 322 -83 400 -208 l27
-42 91 92 c83 83 182 156 386 283 48 30 27 26 -45 -8z"/>
<path d="M4540 2602 c-212 -98 -384 -207 -484 -308 -59 -59 -126 -160 -166
-249 -33 -73 -73 -201 -68 -216 2 -6 46 41 99 103 210 248 356 384 498 468 78
45 166 121 223 193 37 47 46 67 31 67 -5 0 -64 -27 -133 -58z"/>
<path d="M4731 1947 c-243 -97 -252 -102 -230 -116 49 -31 115 -107 126 -146
7 -22 15 -68 19 -102 6 -60 8 -63 34 -63 16 0 38 11 55 27 26 27 27 30 22 113
-3 47 -9 99 -12 117 -7 30 -2 37 66 106 41 40 99 94 129 120 30 25 53 46 50
46 -3 -1 -119 -47 -259 -102z"/>
<path d="M8213 1396 c-45 -6 -87 -16 -93 -22 -7 -7 -10 -46 -8 -100 l3 -89 89
3 c139 5 136 3 136 122 0 115 14 105 -127 86z"/>
<path d="M14551 1319 c-145 -25 -221 -126 -221 -293 1 -129 46 -186 221 -276
136 -70 159 -91 159 -144 0 -119 -181 -143 -328 -45 -24 16 -47 27 -51 24 -5
-2 -11 -33 -14 -67 -3 -35 -9 -77 -13 -95 -6 -29 -3 -34 27 -53 73 -44 213
-66 327 -51 114 16 198 61 238 129 61 102 69 239 18 332 -34 63 -71 91 -208
160 -127 63 -154 91 -140 142 13 45 62 70 129 65 51 -4 92 -19 157 -58 21 -13
40 -20 43 -18 2 3 8 47 13 98 8 88 7 94 -12 106 -62 39 -243 62 -345 44z"/>
<path d="M15313 1320 c-71 -15 -169 -67 -206 -110 -47 -55 -93 -154 -108 -231
-7 -35 -13 -118 -13 -184 0 -183 40 -297 136 -379 56 -49 85 -63 171 -86 83
-21 197 -73 380 -172 70 -38 132 -66 137 -63 15 10 80 142 80 163 0 13 -12 22
-42 31 -24 7 -76 27 -116 43 l-73 30 45 44 c49 46 94 127 120 214 25 83 31
248 13 352 -41 236 -155 334 -407 352 -41 2 -94 1 -117 -4z m195 -202 c53 -32
82 -106 89 -223 11 -176 -31 -331 -101 -374 -72 -45 -189 -14 -226 60 -25 48
-44 197 -36 284 13 145 64 243 141 270 47 18 85 13 133 -17z"/>
<path d="M3909 1306 c-2 -2 -4 -222 -4 -488 l1 -483 291 -3 c225 -2 293 1 300
10 6 7 13 48 17 90 l6 78 -185 0 -185 0 0 120 0 119 158 3 157 3 3 83 3 82
-161 0 -160 0 0 100 0 100 168 2 167 3 7 80 c4 44 6 86 3 93 -3 9 -71 12 -293
12 -159 0 -291 -2 -293 -4z"/>
<path d="M5435 1283 c-49 -13 -94 -29 -99 -33 -5 -5 -8 -47 -7 -94 l2 -86 -39
0 -39 0 -6 -72 c-3 -39 -4 -75 -1 -80 3 -4 23 -8 45 -8 l39 0 -1 -217 c-2
-282 12 -335 99 -364 41 -14 181 -18 224 -6 30 8 36 29 41 122 2 40 -1 49 -13
46 -54 -14 -70 -12 -94 12 l-26 26 0 191 0 190 54 0 c30 0 58 5 62 11 4 7 9
43 12 80 l5 69 -67 0 -66 0 0 120 c0 140 11 131 -125 93z"/>
<path d="M9960 821 l0 -491 125 0 125 0 0 164 0 163 103 6 c209 11 313 86 347
252 27 130 -14 281 -90 331 -74 49 -118 56 -372 62 l-238 4 0 -491z m412 282
c39 -23 60 -72 53 -127 -12 -87 -55 -124 -157 -133 l-58 -6 0 148 0 148 65 -5
c36 -3 78 -14 97 -25z"/>
<path d="M12150 1281 l-95 -26 -3 -92 -3 -92 -37 -3 -37 -3 -6 -70 c-4 -38 -5
-73 -2 -77 2 -5 22 -8 43 -8 l38 0 4 -242 c3 -222 5 -246 23 -277 34 -57 83
-75 202 -75 63 1 107 5 116 12 8 7 17 38 20 70 4 31 8 66 9 77 3 21 1 21 -64
8 -20 -4 -33 1 -52 20 l-26 26 0 191 0 190 55 0 c65 0 71 8 76 95 l4 60 -67 3
-68 3 0 119 c0 140 12 132 -130 91z"/>
<path d="M15900 820 l0 -490 270 0 270 0 10 26 c6 14 10 57 10 95 l0 69 -155
0 -155 0 0 395 0 395 -125 0 -125 0 0 -490z"/>
<path d="M4685 1062 c-49 -8 -95 -16 -102 -18 -9 -2 -11 -91 -10 -356 l2 -353
118 -3 117 -3 0 260 0 260 26 20 c44 34 100 24 126 -22 9 -15 14 -95 18 -267
l5 -245 113 -3 c84 -2 114 1 117 10 3 7 1 142 -3 299 -8 278 -9 288 -33 335
-51 100 -194 131 -311 68 l-57 -31 -3 31 c-4 37 -7 38 -123 18z"/>
<path d="M5950 1065 c-166 -47 -235 -152 -235 -355 1 -193 50 -292 176 -353
105 -51 287 -56 399 -11 l37 15 6 82 c2 45 1 86 -3 91 -5 4 -37 -4 -73 -18
-117 -47 -255 -27 -290 41 -39 76 -52 70 183 78 116 4 212 10 215 14 2 4 0 50
-5 103 -15 161 -61 247 -155 293 -68 34 -176 42 -255 20z m161 -174 c21 -22
29 -39 29 -65 l0 -36 -100 0 c-111 0 -112 1 -86 64 29 70 105 88 157 37z"/>
<path d="M6535 1062 c-49 -8 -96 -16 -103 -18 -10 -3 -12 -79 -10 -356 l3
-353 118 -3 117 -3 0 218 c0 235 4 255 52 283 22 12 33 12 57 3 23 -8 32 -8
39 1 9 11 34 158 36 211 1 28 -1 30 -33 27 -43 -3 -106 -38 -129 -71 l-17 -26
-5 50 c-6 59 -3 58 -125 37z"/>
<path d="M7015 1062 c-49 -8 -96 -16 -102 -18 -10 -3 -13 -116 -13 -524 l0
-520 120 0 120 0 0 159 0 158 73 6 c132 10 243 68 292 152 117 199 79 489 -75
575 -60 34 -172 35 -242 3 l-47 -21 -3 21 c-4 27 -12 28 -123 9z m263 -180
c43 -28 57 -69 57 -167 0 -145 -45 -213 -151 -229 -37 -5 -42 -3 -48 17 -8 29
-8 182 1 296 l6 91 31 9 c36 10 71 4 104 -17z"/>
<path d="M7735 1061 l-100 -17 -3 -357 -2 -358 117 3 118 3 -4 180 c-4 210 7
287 45 311 15 11 34 14 52 10 56 -13 56 -13 65 39 4 28 15 81 23 119 10 46 12
72 5 79 -17 17 -101 -13 -142 -53 l-38 -36 -3 45 c-2 32 -8 46 -18 47 -8 1
-60 -6 -115 -15z"/>
<path d="M8245 1065 c-38 -8 -85 -14 -102 -14 -18 -1 -33 -5 -33 -11 -1 -5 -1
-166 -1 -357 l0 -348 117 0 117 0 0 370 c0 313 -2 370 -14 371 -8 1 -45 -4
-84 -11z"/>
<path d="M8640 1073 c-130 -22 -179 -62 -199 -163 -19 -94 -1 -169 51 -216 12
-12 69 -46 126 -75 118 -61 135 -85 88 -126 -49 -42 -132 -26 -243 47 -12 8
-24 12 -27 9 -3 -3 -7 -46 -8 -95 l-3 -89 40 -20 c58 -28 249 -34 331 -10 80
23 112 49 142 113 19 43 25 71 25 131 0 114 -13 133 -131 188 -157 72 -161 75
-167 93 -23 71 92 90 197 33 29 -16 52 -23 57 -17 5 5 11 41 15 80 4 55 3 74
-8 83 -33 28 -203 48 -286 34z"/>
<path d="M9244 1067 c-160 -41 -244 -160 -244 -345 0 -214 62 -323 217 -382
76 -29 229 -32 318 -6 33 10 66 23 73 28 13 11 18 178 5 178 -5 0 -35 -11 -68
-25 -141 -58 -284 -18 -310 86 l-6 26 208 9 208 9 -1 95 c-3 156 -60 267 -162
312 -55 25 -171 32 -238 15z m138 -158 c21 -11 48 -66 48 -99 0 -19 -6 -20
-100 -20 -95 0 -100 1 -100 21 0 33 29 85 53 97 29 14 73 15 99 1z"/>
<path d="M10954 1070 c-107 -23 -177 -77 -219 -171 -22 -50 -28 -81 -33 -165
-10 -209 39 -324 167 -386 37 -18 68 -23 158 -26 182 -6 271 36 330 156 27 55
28 63 28 202 0 117 -4 157 -20 205 -25 76 -89 144 -160 169 -59 20 -193 29
-251 16z m159 -170 c35 -28 51 -108 45 -235 -5 -116 -22 -158 -73 -182 -54
-26 -94 -9 -124 51 -21 42 -25 64 -25 145 0 112 23 202 56 226 32 21 90 19
121 -5z"/>
<path d="M11625 1071 c-66 -15 -124 -42 -145 -68 -45 -58 -56 -192 -21 -260
25 -50 30 -54 158 -122 92 -48 108 -61 111 -83 8 -68 -88 -90 -183 -43 -27 14
-62 33 -77 42 -15 10 -29 15 -31 13 -2 -3 -7 -45 -11 -93 l-6 -88 47 -22 c38
-17 72 -22 164 -25 230 -8 319 54 335 230 13 131 -18 172 -173 234 -99 40
-139 74 -123 104 26 49 104 50 198 3 28 -14 54 -24 56 -22 2 2 7 41 11 86 l7
82 -54 16 c-63 19 -207 28 -263 16z"/>
<path d="M13285 1062 c-49 -8 -95 -16 -102 -18 -9 -2 -12 -87 -10 -356 l2
-353 117 -3 117 -3 3 232 3 231 29 25 c28 23 47 26 94 12 8 -2 17 3 22 11 9
17 33 161 34 205 1 28 -1 30 -33 27 -43 -3 -106 -38 -129 -71 l-17 -26 -5 50
c-6 59 -3 58 -125 37z"/>
<path d="M13877 1070 c-100 -26 -179 -89 -219 -175 -20 -44 -23 -65 -23 -185
0 -106 4 -146 19 -189 51 -146 222 -227 425 -202 105 14 154 32 162 62 4 13 7
55 8 93 1 77 10 74 -94 36 -46 -17 -76 -21 -132 -18 -85 4 -117 23 -151 89
l-22 44 212 10 213 10 -2 83 c-3 162 -59 274 -160 322 -54 25 -174 35 -236 20z
m126 -161 c27 -12 43 -38 52 -86 l7 -33 -106 0 c-63 0 -106 4 -106 10 0 5 7
28 16 50 24 60 81 85 137 59z"/>
<path d="M12648 1060 c-125 -21 -198 -112 -198 -246 0 -89 10 -115 63 -166
l50 -48 -42 -71 c-22 -39 -41 -77 -41 -84 0 -6 9 -20 20 -30 20 -18 19 -18
-14 -56 -71 -77 -73 -190 -7 -262 51 -56 116 -80 224 -85 182 -8 297 37 349
137 33 63 38 146 11 212 -22 56 -76 89 -224 136 -144 46 -154 64 -41 75 108
11 190 60 223 132 20 45 25 138 9 180 -9 25 -9 26 34 26 41 0 44 2 50 31 3 17
6 53 6 80 l0 49 -212 -1 c-117 -1 -234 -5 -260 -9z m160 -156 c33 -37 31 -121
-4 -163 -38 -46 -93 -41 -119 10 -19 36 -19 90 0 134 24 59 79 67 123 19z
m-58 -609 c40 -14 82 -32 92 -42 25 -23 23 -59 -7 -88 -58 -59 -205 -9 -205
70 0 18 34 85 43 85 2 0 37 -11 77 -25z"/>
</g>
</svg>
